control3min_grf.mot
version=1
nRows=22
nColumns 19
inDegrees=yes
endheader
time	1_ground_force_vx	1_ground_force_vy	1_ground_force_vz	1_ground_force_px	1_ground_force_py	1_ground_force_pz	1_ground_torque_x	1_ground_torque_y	1_ground_torque_z	2_ground_force_vx	2_ground_force_vy	2_ground_force_vz	2_ground_force_px	2_ground_force_py	2_ground_force_pz	2_ground_torque_x	2_ground_torque_y	2_ground_torque_z
            2.502500	            1.193419	          824.466715	          -64.519944	           -0.241863	            0.006284	           -0.419924	           -0.000671	           -0.463439	            0.036267	          -17.293265	          946.168507	           88.510780	           -0.229203	            0.005747	           -0.723170	           -0.032158	            1.759445	            0.164590
            2.503000	            1.739944	          830.419944	          -65.504640	           -0.241703	            0.006284	           -0.419903	           -0.000883	           -0.421564	            0.033254	          -16.613346	          952.612759	           89.518977	           -0.229203	            0.005747	           -0.723265	           -0.030350	            1.740289	            0.163539
            2.503500	            2.240090	          836.193852	          -66.719254	           -0.241845	            0.006284	           -0.419861	           -0.001125	           -0.419977	            0.033510	          -16.024551	          958.320657	           90.336856	           -0.229262	            0.005748	           -0.723392	           -0.029169	            1.744429	            0.164440
            2.504000	            3.015653	          841.246356	          -67.845955	           -0.242013	            0.006284	           -0.419956	           -0.001099	           -0.306561	            0.024724	          -15.813275	          964.764389	           91.016747	           -0.229264	            0.005748	           -0.723444	           -0.025401	            1.549687	            0.146199
            2.504500	            3.195516	          847.379492	          -68.783100	           -0.241929	            0.006284	           -0.419876	           -0.001523	           -0.403840	            0.032780	          -15.502921	          969.734710	           91.832134	           -0.229506	            0.005747	           -0.723427	           -0.023594	            1.475865	            0.139762
            2.505000	            3.194136	          853.689275	          -68.847750	           -0.241937	            0.006283	           -0.419696	           -0.001716	           -0.458553	            0.036981	          -15.151555	          976.361478	           92.981903	           -0.229588	            0.005747	           -0.723559	           -0.023639	            1.523287	            0.145067
            2.505500	            3.238342	          858.918077	          -69.100591	           -0.242212	            0.006283	           -0.419777	           -0.001720	           -0.456154	            0.036698	          -14.983724	          981.883485	           93.846241	           -0.229573	            0.005748	           -0.723701	           -0.024547	            1.608570	            0.153744
            2.506000	            3.236869	          863.245633	          -69.357168	           -0.242148	            0.006284	           -0.419922	           -0.001786	           -0.476378	            0.038274	          -14.532135	          986.670066	           94.707831	           -0.229777	            0.005747	           -0.723684	           -0.026592	            1.805511	            0.173306
            2.506500	            3.234465	          869.557186	          -69.834533	           -0.242131	            0.006283	           -0.419658	           -0.001901	           -0.511140	            0.041050	          -13.894496	          991.825772	           95.523720	           -0.229889	            0.005746	           -0.723611	           -0.025766	            1.839266	            0.177142
            2.507000	            3.460221	          874.789168	          -70.821524	           -0.242219	            0.006283	           -0.419667	           -0.002031	           -0.513513	            0.041573	          -13.818248	          996.794076	           96.667695	           -0.229946	            0.005747	           -0.723800	           -0.023718	            1.710920	            0.165923
            2.507500	            3.548283	          880.922605	          -71.804293	           -0.242403	            0.006282	           -0.419443	           -0.001770	           -0.439555	            0.035828	          -13.601073	         1001.581150	           97.153960	           -0.230000	            0.005746	           -0.723760	           -0.021168	            1.558845	            0.151209
            2.508000	            4.003386	          885.433691	          -72.794944	           -0.242370	            0.006283	           -0.419609	           -0.001614	           -0.356924	            0.029344	          -13.294727	         1007.656482	           97.926353	           -0.230049	            0.005747	           -0.724031	           -0.020268	            1.536150	            0.149287
            2.508500	            3.451602	          889.581238	          -73.142648	           -0.242393	            0.006283	           -0.419683	           -0.002039	           -0.525443	            0.043203	          -13.024577	         1010.785227	           98.735189	           -0.230115	            0.005746	           -0.723757	           -0.020103	            1.560127	            0.152396
            2.509000	            3.175393	          895.890453	          -73.114912	           -0.242402	            0.006282	           -0.419466	           -0.001761	           -0.496771	            0.040542	          -12.856163	         1016.123823	           99.411157	           -0.230248	            0.005747	           -0.724150	           -0.021202	            1.675725	            0.163942
            2.509500	            3.128679	          900.036721	          -73.142872	           -0.242380	            0.006282	           -0.419440	           -0.001597	           -0.459443	            0.037337	          -12.448724	         1020.173216	          100.363995	           -0.230305	            0.005746	           -0.724051	           -0.021812	            1.787525	            0.175856
            2.510000	            2.393569	          905.806063	          -73.345593	           -0.242486	            0.006281	           -0.419253	           -0.001336	           -0.505597	            0.040940	          -11.810983	         1025.328208	          101.414533	           -0.230384	            0.005746	           -0.724161	           -0.020013	            1.737348	            0.171840
            2.510500	            2.528798	          909.053882	          -74.019863	           -0.242572	            0.006282	           -0.419546	           -0.001383	           -0.497070	            0.040474	          -11.263200	         1029.379781	          101.898030	           -0.230454	            0.005746	           -0.724244	           -0.017747	            1.621942	            0.160556
            2.511000	            2.526253	          913.022812	          -74.736553	           -0.242431	            0.006282	           -0.419483	           -0.001414	           -0.510907	            0.041821	          -10.994920	         1033.059761	          102.990390	           -0.230448	            0.005747	           -0.724305	           -0.015651	            1.470504	            0.146601
            2.511500	            2.568996	          917.533425	          -75.634461	           -0.242586	            0.006282	           -0.419515	           -0.001326	           -0.473413	            0.039025	          -10.725640	         1036.374258	          103.330601	           -0.230544	            0.005746	           -0.724346	           -0.015195	            1.468266	            0.146392
            2.512000	            2.291977	          922.042010	          -76.073005	           -0.242575	            0.006283	           -0.419608	           -0.001189	           -0.478135	            0.039449	           -9.894764	         1039.874608	          103.812009	           -0.230546	            0.005746	           -0.724297	           -0.013553	            1.424280	            0.142188
            2.512500	            1.604162	          925.466108	          -75.873189	           -0.242641	            0.006282	           -0.419537	           -0.000955	           -0.550948	            0.045169	           -9.164255	         1045.216072	          104.253090	           -0.230694	            0.005746	           -0.724370	           -0.013713	            1.564048	            0.156003
            2.513000	            1.144715	          929.792789	          -75.945220	           -0.242559	            0.006282	           -0.419523	           -0.000698	           -0.567324	            0.046339	           -8.795773	         1047.056276	          105.010351	           -0.230636	            0.005746	           -0.724347	           -0.014046	            1.672046	            0.167691
